STARTFONT 2.3
FONT -FontForge-Henny Penny-Book-R-Normal--20-200-72-72-P-115-ISO10646-1
SIZE 20 72 72  2
FONTBOUNDINGBOX 28 36 -3 -13
COMMENT "Generated by fontforge, http://fontforge.sourceforge.net"
COMMENT "Copyright (c) 2012, Brownfox (gayaneh.b@gmail.com), with Reserved Font Name "Henny Penny""
STARTPROPERTIES 40
FOUNDRY "FontForge"
FAMILY_NAME "Henny Penny"
WEIGHT_NAME "Book"
SLANT "R"
SETWIDTH_NAME "Normal"
ADD_STYLE_NAME ""
PIXEL_SIZE 20
POINT_SIZE 200
RESOLUTION_X 72
RESOLUTION_Y 72
SPACING "P"
AVERAGE_WIDTH 115
CHARSET_REGISTRY "ISO10646"
CHARSET_ENCODING "1"
FONTNAME_REGISTRY ""
CHARSET_COLLECTIONS "ISO10646-1"
BITS_PER_PIXEL 2
FONT_NAME "HennyPenny-Regular"
FACE_NAME "Henny Penny"
COPYRIGHT "Copyright (c) 2012, Brownfox (gayaneh.b@gmail.com), with Reserved Font Name "Henny Penny""
FONT_VERSION "1.001"
FONT_ASCENT 16
FONT_DESCENT 4
UNDERLINE_POSITION -2
UNDERLINE_THICKNESS 1
X_HEIGHT 11
CAP_HEIGHT 15
RAW_ASCENT 799
RAW_DESCENT 200
NORM_SPACE 5
RELATIVE_WEIGHT 40
RELATIVE_SETWIDTH 50
SUPERSCRIPT_X 0
SUPERSCRIPT_Y 7
SUPERSCRIPT_SIZE 12
SUBSCRIPT_X 0
SUBSCRIPT_Y 1
SUBSCRIPT_SIZE 12
AVG_LOWERCASE_WIDTH 103
AVG_UPPERCASE_WIDTH 144
ENDPROPERTIES
CHARS 233
STARTCHAR space
ENCODING 32
SWIDTH 270 0
DWIDTH 5 0
BBX 1 1 0 0
BITMAP
00
ENDCHAR
STARTCHAR exclam
ENCODING 33
SWIDTH 249 0
DWIDTH 5 0
BBX 3 20 1 -1
BITMAP
B4
F8
FC
BC
BC
78
78
78
38
34
34
34
20
20
10
00
00
B4
F8
74
ENDCHAR
STARTCHAR quotedbl
ENCODING 34
SWIDTH 292 0
DWIDTH 6 0
BBX 4 7 1 9
BITMAP
96
DA
DA
9A
96
55
55
ENDCHAR
STARTCHAR numbersign
ENCODING 35
SWIDTH 1030 0
DWIDTH 21 0
BBX 18 22 1 -6
BITMAP
0000080000
0000140000
0000205000
0000208000
0000814000
5000820000
556BEB5550
00020C0050
0005180000
0008200000
0018605900
017AE95000
AAB5800000
0092400000
01C3000000
0285000000
070C000000
0A18000000
0424000000
0060000000
0090000000
0080000000
ENDCHAR
STARTCHAR dollar
ENCODING 36
SWIDTH 799 0
DWIDTH 16 0
BBX 12 22 2 -5
BITMAP
000040
000142
006FAD
01E27C
03D228
03D218
03F504
02FC00
00FE00
007F80
001FD0
001BF0
1022F4
2020F8
2020B8
345078
7C40B4
9A82E0
01FE40
004000
014000
010000
ENDCHAR
STARTCHAR percent
ENCODING 37
SWIDTH 789 0
DWIDTH 16 0
BBX 16 19 0 0
BITMAP
00000020
06E40090
1D2D0180
2C0E0200
3C0B0900
2D0E2800
1E1D6000
07E4C000
00024000
00060000
000C1BD0
00247474
00A0E02C
0181E02D
0201D02D
0901E03C
1800B474
20002F90
50000000
ENDCHAR
STARTCHAR ampersand
ENCODING 38
SWIDTH 773 0
DWIDTH 15 0
BBX 15 20 0 -2
BITMAP
007E4000
01928000
0341C000
07028000
07074000
075E0000
03B80000
02F00090
07D002D0
0FF01FD0
2EB551D0
3D3C00C0
7D1E0080
7D0B4140
7D07D200
2F01F800
1FD0BE04
02FE6FA8
00000BF0
000001D0
ENDCHAR
STARTCHAR quotesingle
ENCODING 39
SWIDTH 174 0
DWIDTH 4 0
BBX 2 6 1 10
BITMAP
90
D0
90
90
50
10
ENDCHAR
STARTCHAR parenleft
ENCODING 40
SWIDTH 431 0
DWIDTH 9 0
BBX 9 28 0 -8
BITMAP
004000
014000
030000
0A0000
0D0000
1C0000
280000
380000
780000
740000
B40000
B40000
B40000
B40000
B40000
B80000
780000
7C0000
3D0000
2E0000
1F0000
0B4000
07C000
02D000
00B000
003800
001D00
000240
ENDCHAR
STARTCHAR parenright
ENCODING 41
SWIDTH 443 0
DWIDTH 9 0
BBX 9 20 0 -5
BITMAP
190000
078000
01E000
00B800
003D00
001F00
000F40
000B80
000B80
000B80
000B80
000B40
000F40
001E00
002D00
007800
00E000
078000
2D0000
500000
ENDCHAR
STARTCHAR asterisk
ENCODING 42
SWIDTH 490 0
DWIDTH 10 0
BBX 8 9 1 10
BITMAP
0100
0340
0285
019D
A4A4
6AD0
0674
1D2D
040E
ENDCHAR
STARTCHAR plus
ENCODING 43
SWIDTH 440 0
DWIDTH 9 0
BBX 7 11 1 1
BITMAP
0100
0100
0100
0100
0254
FFE4
0140
0140
0180
0080
0040
ENDCHAR
STARTCHAR comma
ENCODING 44
SWIDTH 251 0
DWIDTH 5 0
BBX 3 7 1 -4
BITMAP
B4
FC
BC
28
24
20
50
ENDCHAR
STARTCHAR hyphen
ENCODING 45
SWIDTH 436 0
DWIDTH 9 0
BBX 7 2 1 4
BITMAP
4000
AFF4
ENDCHAR
STARTCHAR period
ENCODING 46
SWIDTH 238 0
DWIDTH 5 0
BBX 3 3 1 -1
BITMAP
B4
F8
B4
ENDCHAR
STARTCHAR slash
ENCODING 47
SWIDTH 690 0
DWIDTH 14 0
BBX 14 19 0 0
BITMAP
00000010
00000090
00000180
00000200
00000900
00001800
00006000
0000D000
00024000
00060000
000C0000
00240000
00A00000
01800000
02000000
09000000
18000000
20000000
90000000
ENDCHAR
STARTCHAR zero
ENCODING 48
SWIDTH 723 0
DWIDTH 14 0
BBX 15 14 0 1
BITMAP
00AFE400
07906E00
1E000B80
3C0003D0
780002E0
B80001F0
B40001F4
B80000F4
B80001F0
7C0001F0
3D0002D0
1F400780
07E41E00
006FE400
ENDCHAR
STARTCHAR one
ENCODING 49
SWIDTH 505 0
DWIDTH 10 0
BBX 10 18 0 -1
BITMAP
005000
00D000
02E000
07E000
2AF000
90F000
00B400
00B400
007800
007800
007C00
003C00
003D00
003E00
003F40
00BFE0
07E400
190000
ENDCHAR
STARTCHAR two
ENCODING 50
SWIDTH 534 0
DWIDTH 11 0
BBX 11 18 0 -2
BITMAP
06F900
1FFF40
342FC0
900BC0
800BC0
8007C0
400B40
000E00
001C00
003400
009000
020000
180000
7E0004
1BE420
01BFD0
001FC0
000640
ENDCHAR
STARTCHAR three
ENCODING 51
SWIDTH 511 0
DWIDTH 10 0
BBX 11 17 0 -1
BITMAP
240000
3FFE40
380700
200900
102400
006000
00D000
002D00
000B80
0002D0
4001F0
8001F0
8001F4
A002F0
390BE0
1FFFC0
02FE00
ENDCHAR
STARTCHAR four
ENCODING 52
SWIDTH 712 0
DWIDTH 14 0
BBX 14 19 0 -2
BITMAP
00008000
00024000
000B4000
001F4000
00574000
01478000
0503C000
1803C000
7002D000
BD02E000
06E5F000
006FF450
0002FF80
0000FB40
0000B800
00007C00
0000BD00
0006BF00
000001A0
ENDCHAR
STARTCHAR five
ENCODING 53
SWIDTH 757 0
DWIDTH 15 0
BBX 15 19 0 -2
BITMAP
0000D008
0002FD28
00057FF4
00080BE0
001401D0
00100000
00794000
006FE000
0002FC00
00007E00
10002F00
80001F40
80001F40
80001F00
80002E00
80003D00
6000B800
1D06E000
06FE4000
ENDCHAR
STARTCHAR six
ENCODING 54
SWIDTH 598 0
DWIDTH 12 0
BBX 12 16 0 0
BITMAP
00AF90
07D068
0F4009
2E0002
3D0000
7D6F90
BE81B4
BE002C
BD001D
BC001E
7C000E
7C001E
2D001D
1E002C
0790B4
00BF80
ENDCHAR
STARTCHAR seven
ENCODING 55
SWIDTH 507 0
DWIDTH 10 0
BBX 10 17 0 -2
BITMAP
500160
FFFFD0
A06FC0
900240
400200
400900
000C00
002800
003400
00B000
00E000
01D000
02D000
07C000
0BC000
0FC000
040000
ENDCHAR
STARTCHAR eight
ENCODING 56
SWIDTH 476 0
DWIDTH 10 0
BBX 10 16 0 -1
BITMAP
06F800
1F4600
3E0200
3E0200
3F0200
2FD800
0FF400
07FE00
1D6F40
3007C0
A002D0
9001D0
9001D0
B002C0
390740
0BF900
ENDCHAR
STARTCHAR nine
ENCODING 57
SWIDTH 601 0
DWIDTH 12 0
BBX 12 15 0 0
BITMAP
06FE40
1E07E0
7800F8
B400BC
B4007D
B4003E
B8007E
7C007E
1F41FE
06FEBD
00007C
0000B8
0001F0
240BD0
0BF900
ENDCHAR
STARTCHAR colon
ENCODING 58
SWIDTH 246 0
DWIDTH 5 0
BBX 3 11 1 -1
BITMAP
B4
F8
B4
00
00
00
00
00
78
BC
78
ENDCHAR
STARTCHAR semicolon
ENCODING 59
SWIDTH 266 0
DWIDTH 5 0
BBX 4 13 1 -4
BITMAP
78
BD
78
00
00
00
00
78
BC
7C
28
20
80
ENDCHAR
STARTCHAR less
ENCODING 60
SWIDTH 522 0
DWIDTH 10 0
BBX 9 10 1 1
BITMAP
000200
001900
00A000
064000
680000
B40000
1A4000
01A400
001E00
000140
ENDCHAR
STARTCHAR equal
ENCODING 61
SWIDTH 655 0
DWIDTH 13 0
BBX 11 4 1 4
BITMAP
016AFC
AA5500
000000
BFFA90
ENDCHAR
STARTCHAR greater
ENCODING 62
SWIDTH 533 0
DWIDTH 11 0
BBX 8 10 1 1
BITMAP
5000
1900
0280
0064
000A
0007
0018
0090
0600
1400
ENDCHAR
STARTCHAR question
ENCODING 63
SWIDTH 564 0
DWIDTH 11 0
BBX 11 18 0 -2
BITMAP
02BE40
1D07E0
2801F4
7800F8
BD00F8
BF00F8
7F42F0
2E07D0
001F40
007800
01D000
060000
080000
084000
078000
000000
038000
02C000
ENDCHAR
STARTCHAR at
ENCODING 64
SWIDTH 898 0
DWIDTH 18 0
BBX 16 20 1 -6
BITMAP
001BFE40
00A405E0
03400028
09000009
24000F06
202F9F02
50B47F02
82D02F02
83C01E02
83C01E02
87C01E02
83D02E02
83F47F05
81FFE748
506F82E4
2000B400
2400F800
0D003800
03907400
00BF9000
ENDCHAR
STARTCHAR A
ENCODING 65
SWIDTH 784 0
DWIDTH 16 0
BBX 16 18 0 -2
BITMAP
00168000
02FFC000
000FD000
000EE000
0015F000
0020F400
0020B800
00607C00
00B97D00
00C6FF00
02803F40
03001F80
0A000FC0
FE000BD0
06C007E0
000003F8
000007FF
00002900
ENDCHAR
STARTCHAR B
ENCODING 66
SWIDTH 685 0
DWIDTH 14 0
BBX 14 20 0 -3
BITMAP
516BE400
1FC1BD00
07C03E00
03C02E00
02C02E00
02C03C00
02C07400
02D68000
02FAF800
02D02F40
02D00B80
02D007D0
02E003D0
02E003D0
02E007C0
02F00B80
03F82E00
0BFFE400
29000000
40000000
ENDCHAR
STARTCHAR C
ENCODING 67
SWIDTH 742 0
DWIDTH 15 0
BBX 15 19 0 -2
BITMAP
00000040
00000040
00000080
006FFAD0
06E41BD0
1F8001D0
2F000060
7D000020
BD000000
BC000000
FC000000
FC000004
BD000008
BE000004
7F000014
2F400020
0FD00090
02F90640
006FF900
ENDCHAR
STARTCHAR D
ENCODING 68
SWIDTH 726 0
DWIDTH 15 0
BBX 15 17 0 -4
BITMAP
65ABF900
1FD06F80
0B800BD0
078003E0
038002F0
038002F4
038002F0
03C002F0
03C002E0
03C003D0
03D00B80
03F42E00
07FF9000
0BE40000
1D000000
60000000
40000000
ENDCHAR
STARTCHAR E
ENCODING 69
SWIDTH 557 0
DWIDTH 11 0
BBX 11 19 0 -3
BITMAP
555AB0
2F9030
1F8020
0F8010
0F8000
0B8000
0B8000
078100
07FD00
078500
03C100
03C100
03C000
03C000
02C004
02D008
03D01C
7FFEF8
000564
ENDCHAR
STARTCHAR F
ENCODING 70
SWIDTH 533 0
DWIDTH 11 0
BBX 11 18 0 -1
BITMAP
00006C
05502C
1FD018
0BD014
07D010
07D100
03D200
03D600
02FE00
02D600
02D200
02D100
01D000
01E000
01E000
01E000
06F000
7EBD00
ENDCHAR
STARTCHAR G
ENCODING 71
SWIDTH 750 0
DWIDTH 15 0
BBX 15 15 0 0
BITMAP
00000004
00000018
006FE420
07E41BE0
1F4002C0
3E000280
7D000140
BC000100
FC0005B4
FC02FFD0
BD0007C0
7E0003C0
3F0007D0
0FD01A90
01BF9000
ENDCHAR
STARTCHAR H
ENCODING 72
SWIDTH 743 0
DWIDTH 15 0
BBX 15 21 0 -3
BITMAP
24000000
0BFF0000
07D005B8
07C0FFD0
07C00BC0
07C007C0
07C007C0
07C003C0
07C003C0
07C01BC0
07FFEFC0
07D007C0
07C003C0
07C00380
07C00380
07C00380
07C002C0
07C007C0
0BD0BFF4
7FE01000
50100000
ENDCHAR
STARTCHAR I
ENCODING 73
SWIDTH 438 0
DWIDTH 9 0
BBX 11 21 -1 -4
BITMAP
6AAAF8
07FE00
01FC00
01F800
01F400
01F400
00F000
00F000
00F000
00E000
00E000
00E000
00E000
00D000
01D000
01D000
01D000
01E000
07FF00
690000
400000
ENDCHAR
STARTCHAR J
ENCODING 74
SWIDTH 628 0
DWIDTH 13 0
BBX 14 24 0 -5
BITMAP
00000050
00016B80
007FFC00
0007F400
0002F400
0001F000
0001F000
0000F000
0000F000
0000F000
0000F000
0000F000
0000F000
0000E000
0000E000
0001E000
0001D000
0002C000
2E438000
BF834000
FF4B0000
901D0000
60780000
2F900000
ENDCHAR
STARTCHAR K
ENCODING 75
SWIDTH 866 0
DWIDTH 17 0
BBX 18 18 0 -2
BITMAP
0164000000
BFD0640000
1FC02FF400
0B80290000
0B80600000
0B80800000
0783000000
07CF400000
07EF800000
07CBD00000
07C3F00080
03C1F80050
03C0BE0020
03C02FD0A0
03C00BFFD0
07D001BE40
1FF4000000
0018000000
ENDCHAR
STARTCHAR L
ENCODING 76
SWIDTH 660 0
DWIDTH 13 0
BBX 13 15 0 0
BITMAP
64000000
1BFFC000
02F80000
02F40000
02F40000
01F40000
01F00000
01F00000
01F00400
01F00100
01E00200
01E00300
02F40B80
1BFFFF80
15400000
ENDCHAR
STARTCHAR M
ENCODING 77
SWIDTH 1089 0
DWIDTH 22 0
BBX 23 16 0 -1
BITMAP
000000007F40
00000000B500
02A90001E000
007F8002E000
002BD003E000
0017F00AF000
0015F808F000
0014BE24B400
00187FA0B800
00142FD07800
00140F807C00
00240B403D00
B43001002E00
FEA000002F80
FFC000007FF4
7E0000029000
ENDCHAR
STARTCHAR N
ENCODING 78
SWIDTH 799 0
DWIDTH 16 0
BBX 16 19 0 -4
BITMAP
00000005
FFD00FFE
0BF401E0
07FD0090
027F4050
022FD050
020BF450
0203FD90
0200FFC0
02007FC0
02001FC0
02000BC0
020002C0
02000080
02000000
07000000
0B400000
BFE00000
00600000
ENDCHAR
STARTCHAR O
ENCODING 79
SWIDTH 747 0
DWIDTH 15 0
BBX 15 15 0 0
BITMAP
00AFE400
07907E00
1E000FC0
3D0007E0
7C0002F4
B80001F8
F80001F8
F80000F8
B80000F8
BC0000F8
7D0001F4
3E0002E0
1F4003C0
07E41F40
006FE400
ENDCHAR
STARTCHAR P
ENCODING 80
SWIDTH 623 0
DWIDTH 12 0
BBX 13 18 0 -3
BITMAP
001BF800
FFF82F00
07F00F40
01F00F40
01F00F40
01F01F00
01F07D00
01FFE400
01E00000
01F00000
01F00000
01F00000
01F00000
02F00000
02F00000
03F40000
07FC0000
54069000
ENDCHAR
STARTCHAR Q
ENCODING 81
SWIDTH 804 0
DWIDTH 16 0
BBX 23 24 0 -9
BITMAP
006FE9000000
02D06F800000
0F0007E00000
2D0001F80000
780000BD0000
B800007E0000
B400003E0000
F400002E0000
F800002E0000
B800002E0000
BC007E2D0000
7D0082FC0000
2F0140F80000
0F8200F40000
02F607F80000
006FE97C0000
0000003D0000
0000003E0000
0000002F0004
0000001F8008
0000000FD008
0000000BF474
00000003FFE0
00000000BF40
ENDCHAR
STARTCHAR R
ENCODING 82
SWIDTH 869 0
DWIDTH 17 0
BBX 18 15 0 -1
BITMAP
005BE40000
FFF47D0000
1BE02F0000
07D01F0000
03D02F0000
02D03E0000
02D1FC0000
02FFE40000
01D2E00000
01D1F40000
01D0F80010
01E07E0020
02F02FD060
7FF80BFFD0
000501BE40
ENDCHAR
STARTCHAR S
ENCODING 83
SWIDTH 517 0
DWIDTH 10 0
BBX 11 19 0 -2
BITMAP
000010
00BE20
02D1E0
078060
078010
07C000
03E000
02F400
00BD00
003F40
001FC0
0007E0
8002F0
8001F4
9000F4
7000F4
7801F0
6A46D0
40BE40
ENDCHAR
STARTCHAR T
ENCODING 84
SWIDTH 659 0
DWIDTH 13 0
BBX 14 21 0 -3
BITMAP
79400000
BFFFFFE0
740381E0
20038060
20038060
20038010
04038000
00038000
00078000
00078000
00078000
00078000
00078000
00078000
00078000
000BC000
000BC000
000FE000
002FFF40
00B50000
02400000
ENDCHAR
STARTCHAR U
ENCODING 85
SWIDTH 690 0
DWIDTH 14 0
BBX 15 15 0 1
BITMAP
00064000
15BD0000
FFF40000
1FE0FAE8
0BD01B80
0BD00340
07D00240
07D00240
07D00240
07D00200
03E00200
03E00200
01F40500
00BD1800
001BE000
ENDCHAR
STARTCHAR V
ENCODING 86
SWIDTH 798 0
DWIDTH 16 0
BBX 18 15 0 0
BITMAP
001A400000
BFF8000050
07F80001D0
00FC005F00
007D07FD00
002F003400
001F402000
000BC05000
0007E08000
0003F54000
0001FE0000
0000FD0000
0000BC0000
0000380000
0000240000
ENDCHAR
STARTCHAR W
ENCODING 87
SWIDTH 1120 0
DWIDTH 22 0
BBX 26 17 -1 -2
BITMAP
00000000065000
0000000001BFE0
00000000003D00
00140000003400
01B00000006000
6FF00000009000
02F00240008000
00F407D0024000
00B80AE0020000
007D14F4050000
003E20BC080000
002F907E140000
001F802FB00000
000F401FD00000
000A000FC00000
00000007800000
00000002000000
ENDCHAR
STARTCHAR X
ENCODING 88
SWIDTH 868 0
DWIDTH 17 0
BBX 18 17 0 -1
BITMAP
0016800000
FFFF400000
06FF005000
007F403E40
001FC03400
0007D05000
0002F18000
0001FE0000
0000BE0000
0000AF0000
00020F4000
000907C000
001802E000
01B000F400
7FF400BC00
016C1FFF40
0000000050
ENDCHAR
STARTCHAR Y
ENCODING 89
SWIDTH 796 0
DWIDTH 16 0
BBX 18 20 0 -3
BITMAP
016C000000
BFE0009400
1BD0006FE0
02F0002400
00BC005000
003E018000
001FC60000
0007FC0000
0002F40000
0001F00000
0000F00000
0000F00000
0000F00000
0000F00000
0000F40000
0001F40000
0001F40000
0006F80000
007FFD0000
00001A0000
ENDCHAR
STARTCHAR Z
ENCODING 90
SWIDTH 627 0
DWIDTH 13 0
BBX 12 17 1 -3
BITMAP
940140
BFFF40
A07F00
807E00
80BC00
40F800
01F400
01F000
02E000
03D004
078008
0B4008
0F000D
1E002E
2E5BFF
3FA401
100000
ENDCHAR
STARTCHAR bracketleft
ENCODING 91
SWIDTH 344 0
DWIDTH 7 0
BBX 7 20 0 -4
BITMAP
0F90
1E00
2D00
2D00
2C00
3C00
3C00
3C00
7800
7800
7800
7800
B800
B800
B800
B800
B800
B800
BD00
6FF4
ENDCHAR
STARTCHAR backslash
ENCODING 92
SWIDTH 347 0
DWIDTH 7 0
BBX 7 22 0 -3
BITMAP
8000
9000
6000
2000
2000
1400
0800
0800
0800
0500
0200
0200
0240
0180
00C0
0090
0050
0020
0020
0014
0008
0004
ENDCHAR
STARTCHAR bracketright
ENCODING 93
SWIDTH 334 0
DWIDTH 7 0
BBX 7 19 0 -5
BITMAP
0040
2FD0
03D0
02D0
02E0
02E0
02E0
02F0
02F0
01F0
01F0
01F4
01F4
01F4
01F4
02F4
0780
6400
4000
ENDCHAR
STARTCHAR asciicircum
ENCODING 94
SWIDTH 658 0
DWIDTH 13 0
BBX 11 5 1 11
BITMAP
006000
01F800
07FE00
2D0BD0
A000BC
ENDCHAR
STARTCHAR underscore
ENCODING 95
SWIDTH 678 0
DWIDTH 14 0
BBX 12 2 1 -7
BITMAP
16ABFD
555000
ENDCHAR
STARTCHAR grave
ENCODING 96
SWIDTH 278 0
DWIDTH 6 0
BBX 4 4 1 15
BITMAP
D0
B4
2C
05
ENDCHAR
STARTCHAR a
ENCODING 97
SWIDTH 527 0
DWIDTH 11 0
BBX 12 15 0 -2
BITMAP
07E400
183C00
281E00
2E1F00
1F0F00
000F40
000F40
0BFF80
390B80
B40BC0
B81BC0
7FF7D4
2F93E5
0002FC
0000B4
ENDCHAR
STARTCHAR b
ENCODING 98
SWIDTH 582 0
DWIDTH 12 0
BBX 14 23 -2 0
BITMAP
00400000
00C00000
07C00000
BFC00000
03D00000
02D00000
02D00000
01D00000
01D00000
01D00000
01D00000
01D00000
01E00000
01E1FD00
01E91F40
00F007C0
00F003D0
00F003D0
00F003C0
00F407C0
00FD1F40
02FFF900
0E500000
ENDCHAR
STARTCHAR c
ENCODING 99
SWIDTH 437 0
DWIDTH 9 0
BBX 9 11 0 1
BITMAP
02F800
093E00
243F00
701E00
B00000
B00200
B00140
740140
380240
2E0600
07F800
ENDCHAR
STARTCHAR d
ENCODING 100
SWIDTH 523 0
DWIDTH 10 0
BBX 11 19 0 1
BITMAP
000080
000BC0
003BC0
0007C0
0007C0
0003C0
0003C0
0003C0
0003C0
0003C0
0003C0
0BFBC0
2E0780
7C0380
B80380
B80380
BC0380
3E07D0
0BFEA8
ENDCHAR
STARTCHAR e
ENCODING 101
SWIDTH 434 0
DWIDTH 9 0
BBX 9 11 0 1
BITMAP
02F900
0E0B00
2C0740
780B40
B81E00
BFF800
B80000
7C0100
3D0140
1F4200
06F900
ENDCHAR
STARTCHAR f
ENCODING 102
SWIDTH 299 0
DWIDTH 6 0
BBX 11 26 -1 -3
BITMAP
000BD0
002470
005034
0081F4
00C7F0
0187D0
018000
028000
02C100
07F900
BFC000
03C000
03C000
03C000
03C000
03C000
03C000
03C000
03C000
03C000
03D000
03D000
03D000
03E000
07FE00
290000
ENDCHAR
STARTCHAR g
ENCODING 103
SWIDTH 567 0
DWIDTH 11 0
BBX 13 20 -1 -8
BITMAP
00002E40
00008B80
01BF8BC0
0BD2D740
0F40F000
1F40F000
0F40F000
0BC2D000
01FE4000
02400000
03800000
01FE9000
0281F800
0F003D00
2D001E00
3D001E00
7D001D00
3E002C00
1F80A000
06FE4000
ENDCHAR
STARTCHAR h
ENCODING 104
SWIDTH 566 0
DWIDTH 11 0
BBX 13 22 -1 0
BITMAP
00600000
06E00000
7BD00000
02D00000
01D00000
01C00000
01C00000
02C00000
02C00000
02C00000
02800000
02800000
038BD000
03A1F400
03D0B400
03C0B800
0780B800
0780B800
0740B800
0F80B800
BFE2FF40
00010000
ENDCHAR
STARTCHAR i
ENCODING 105
SWIDTH 301 0
DWIDTH 6 0
BBX 6 14 0 2
BITMAP
0B40
0B00
0000
0640
BF40
1F40
0F40
0F00
0F00
0F00
0F00
0E00
1F40
BFE0
ENDCHAR
STARTCHAR j
ENCODING 106
SWIDTH 367 0
DWIDTH 7 0
BBX 10 22 -3 -10
BITMAP
000B00
000B00
000140
00BFC0
001FD0
0007E0
0003E0
0002E0
0001E0
0001F0
0000F0
0000F0
0000F0
0000B0
0000E0
0B80E0
2FC0D0
3E41C0
740180
300340
281E00
0BE400
ENDCHAR
STARTCHAR k
ENCODING 107
SWIDTH 567 0
DWIDTH 11 0
BBX 13 22 -2 -2
BITMAP
00600000
06E00000
7FE00000
01E00000
00E00000
00E00000
00E00000
00E00000
00E00000
00E25000
00F0BE00
00B09000
00B24000
00BB0000
00BB4140
00B7C080
00B6F480
00B4FFC0
00B42F40
00B80000
00FC0000
1BEBD000
ENDCHAR
STARTCHAR l
ENCODING 108
SWIDTH 354 0
DWIDTH 7 0
BBX 8 18 -1 0
BITMAP
0050
01D0
07D0
2FD0
E7D0
03D0
02D0
02E0
02E0
01E0
01E0
01E0
00E0
00F0
00F0
00F0
00F8
0BFF
ENDCHAR
STARTCHAR m
ENCODING 109
SWIDTH 708 0
DWIDTH 14 0
BBX 14 9 0 2
BITMAP
06000000
6F2E2F40
0F8B8780
0B4747C0
0B0743C0
070B4780
0B6FCB80
3FD05B80
00100090
ENDCHAR
STARTCHAR n
ENCODING 110
SWIDTH 584 0
DWIDTH 12 0
BBX 12 13 0 0
BITMAP
060000
0E07D0
7F1FF4
4F21F8
0B4078
078078
078078
038078
038074
0280B4
02C7F4
1FF068
001005
ENDCHAR
STARTCHAR o
ENCODING 111
SWIDTH 503 0
DWIDTH 10 0
BBX 10 9 0 1
BITMAP
06F900
1E0B80
3D03D0
7C02E0
BC01E0
7C01E0
3D02D0
1F4780
06F900
ENDCHAR
STARTCHAR p
ENCODING 112
SWIDTH 509 0
DWIDTH 10 0
BBX 10 19 0 -9
BITMAP
024000
1B6F80
6F82D0
0B41E0
0B01F0
0B01E0
0B42D0
0B87C0
0BBE00
0B4000
0B4000
0B4000
0B4000
0B4000
0B4000
0F8000
0FC000
7FE000
005400
ENDCHAR
STARTCHAR q
ENCODING 113
SWIDTH 505 0
DWIDTH 10 0
BBX 10 19 0 -9
BITMAP
1BEB80
3D1F40
B80B00
B80B00
B80B00
7D0F00
1BEB00
000B00
000B00
000B00
000B00
000B00
000B00
000F00
000F00
000F00
01FF80
0006F0
000010
ENDCHAR
STARTCHAR r
ENCODING 114
SWIDTH 414 0
DWIDTH 8 0
BBX 10 14 0 0
BITMAP
001F80
0624D0
BE92D0
0F8780
0F8000
0B8000
0B4000
0B8000
0B8000
078000
07C000
07D000
0BFC00
390000
ENDCHAR
STARTCHAR s
ENCODING 115
SWIDTH 482 0
DWIDTH 10 0
BBX 10 16 0 -2
BITMAP
000040
01BD80
038340
074140
078100
03D000
01F400
007D00
002F40
010BC0
0903D0
0C02E0
2802E0
AC02D0
060780
01BE00
ENDCHAR
STARTCHAR t
ENCODING 116
SWIDTH 434 0
DWIDTH 9 0
BBX 9 16 0 0
BITMAP
002000
006000
00A000
01D000
07FD00
7FD000
0B8000
0F4000
0F0000
1E0000
1E0000
2E0000
1E0740
1F0340
0B8200
02F900
ENDCHAR
STARTCHAR u
ENCODING 117
SWIDTH 744 0
DWIDTH 15 0
BBX 15 11 0 0
BITMAP
00001900
0242FE00
1B401E00
AF800E00
07800F00
03C00F00
03D01F00
02E02B40
01F467F8
00FFD140
006F4000
ENDCHAR
STARTCHAR v
ENCODING 118
SWIDTH 600 0
DWIDTH 12 0
BBX 12 12 0 -1
BITMAP
009000
1B8000
5BC000
07D1FE
02E030
01F020
00F450
007C80
003D80
001F40
000F00
000500
ENDCHAR
STARTCHAR w
ENCODING 119
SWIDTH 745 0
DWIDTH 15 0
BBX 15 10 0 0
BITMAP
004001A8
1B4080D0
BF81D080
0F82F140
0BC5FA00
07D87E00
03F82D00
01F40800
00E00000
00900000
ENDCHAR
STARTCHAR x
ENCODING 120
SWIDTH 548 0
DWIDTH 11 0
BBX 11 12 0 0
BITMAP
016800
FFD100
1BD2F8
03E180
01F600
00FC00
007C00
003D00
00BE00
065F40
3A4BF4
007400
ENDCHAR
STARTCHAR y
ENCODING 121
SWIDTH 659 0
DWIDTH 13 0
BBX 13 19 0 -9
BITMAP
00600040
1BD2FF80
BF407F00
1F002F00
0F401E00
0F402E00
0B802E00
07C02E00
02E09D00
00BE1D00
00002C00
00002800
00002800
00003400
02E07000
05F49000
08B1C000
09074000
02F80000
ENDCHAR
STARTCHAR z
ENCODING 122
SWIDTH 460 0
DWIDTH 9 0
BBX 10 12 0 0
BITMAP
790000
7EFF00
601D00
903C00
40B800
00F000
02E000
07C010
0F8050
2F05D0
7FFFC0
540000
ENDCHAR
STARTCHAR braceleft
ENCODING 123
SWIDTH 460 0
DWIDTH 9 0
BBX 9 25 0 -6
BITMAP
002F40
00E000
01D000
01D000
01E000
01E000
01F000
00F400
00F400
01F000
03E000
6F8000
280000
060000
01C000
01D000
00E000
01F000
01F000
01F000
01F000
01F000
01F040
00F880
006F40
ENDCHAR
STARTCHAR bar
ENCODING 124
SWIDTH 368 0
DWIDTH 7 0
BBX 2 21 3 -4
BITMAP
80
80
80
80
80
80
80
80
80
80
80
80
80
80
80
40
50
50
50
50
50
ENDCHAR
STARTCHAR braceright
ENCODING 125
SWIDTH 476 0
DWIDTH 10 0
BBX 9 21 0 -5
BITMAP
1F9000
62F000
80F800
00F800
00F800
00B800
007800
002C00
000680
000700
000B00
000B00
000B40
000780
0003C0
0003C0
0002C0
0002C0
000380
001A00
00F400
ENDCHAR
STARTCHAR asciitilde
ENCODING 126
SWIDTH 733 0
DWIDTH 15 0
BBX 13 4 1 3
BITMAP
00000180
1BE50740
60BFFE00
4006F400
ENDCHAR
STARTCHAR nonbreakingspace
ENCODING 160
SWIDTH 270 0
DWIDTH 5 0
BBX 1 1 0 0
BITMAP
00
ENDCHAR
STARTCHAR exclamdown
ENCODING 161
SWIDTH 247 0
DWIDTH 5 0
BBX 3 21 1 -2
BITMAP
B4
F8
B4
00
00
20
30
30
34
34
34
78
78
78
B8
BC
BC
BC
FC
B8
74
ENDCHAR
STARTCHAR cent
ENCODING 162
SWIDTH 799 0
DWIDTH 16 0
BBX 10 18 3 -5
BITMAP
010000
010000
02FE00
0B8280
2D41D0
3C43D0
7843C0
B85000
B81000
B82000
7C2010
3D1450
1F5580
06FD00
000800
000500
000200
000100
ENDCHAR
STARTCHAR sterling
ENCODING 163
SWIDTH 799 0
DWIDTH 16 0
BBX 11 18 3 -2
BITMAP
01BE00
074380
0E02D0
2D0BD0
2D0FC0
2E0B40
2F0000
1F4000
6FA400
47C000
03E000
02F000
00F000
00F400
2FF014
91F008
82E908
7F47E0
ENDCHAR
STARTCHAR currency
ENCODING 164
SWIDTH 732 0
DWIDTH 15 0
BBX 13 14 1 1
BITMAP
00009000
40018000
66BF8000
2E01A000
24002400
20001400
60001400
60002400
70006000
2906C000
0FF96000
0D000900
28000240
20000000
ENDCHAR
STARTCHAR yen
ENCODING 165
SWIDTH 799 0
DWIDTH 16 0
BBX 14 22 1 -3
BITMAP
00180010
BFF005A0
1FF03F40
03F00900
01F80800
00BC0400
007E1000
002F6000
001FD000
000BD000
000BD000
02FFFFE0
0007C000
0007FF00
01ABC000
0007C000
0007C000
0007C000
000BD000
001FFD00
01E50000
01000000
ENDCHAR
STARTCHAR brokenbar
ENCODING 166
SWIDTH 341 0
DWIDTH 7 0
BBX 1 23 3 -5
BITMAP
80
80
80
80
80
80
80
80
40
00
40
80
80
80
80
80
80
80
80
80
80
80
80
ENDCHAR
STARTCHAR section
ENCODING 167
SWIDTH 546 0
DWIDTH 11 0
BBX 9 23 1 -6
BITMAP
02F900
0E0B40
2C0780
3C0BC0
3D0740
3F0000
1FD000
1FF400
71FE00
A02F40
F00780
F802C0
7E0180
2FD240
07F900
00BD00
001F00
000740
000240
000140
0B4100
0FC100
07E400
ENDCHAR
STARTCHAR dieresis
ENCODING 168
SWIDTH 393 0
DWIDTH 8 0
BBX 5 2 2 13
BITMAP
B740
A740
ENDCHAR
STARTCHAR copyright
ENCODING 169
SWIDTH 1023 0
DWIDTH 20 0
BBX 19 18 1 -3
BITMAP
001AFE9000
01A501B800
0740000B40
1C000401C0
240BF800A0
602D180070
9074040034
80B4040024
C0B4000024
C0B4010024
C078020034
802E090030
9007E40060
20000000C0
2800000240
0A00001E00
02E405B400
002BFE4000
ENDCHAR
STARTCHAR ordfeminine
ENCODING 170
SWIDTH 558 0
DWIDTH 11 0
BBX 10 10 1 6
BITMAP
2F8000
A1E000
F07000
B07000
1BF400
787400
B07440
B07450
B4B880
2E5F40
ENDCHAR
STARTCHAR guillemotleft
ENCODING 171
SWIDTH 608 0
DWIDTH 12 0
BBX 10 18 1 -5
BITMAP
000010
000020
000460
001450
003080
00A1C0
02C280
1F4B40
7E1F40
BE0BC0
2F43D0
0BC1E0
02E0B0
00B070
003820
001C10
000A00
000100
ENDCHAR
STARTCHAR logicalnot
ENCODING 172
SWIDTH 616 0
DWIDTH 12 0
BBX 11 4 1 5
BITMAP
FFEAB4
000024
000024
000020
ENDCHAR
STARTCHAR uni00AD
ENCODING 173
SWIDTH 436 0
DWIDTH 9 0
BBX 7 2 1 4
BITMAP
4000
AFF4
ENDCHAR
STARTCHAR registered
ENCODING 174
SWIDTH 1048 0
DWIDTH 21 0
BBX 19 18 1 -4
BITMAP
001AFE9000
01B9016900
07FFFE0240
1C1E0B8050
340E078020
600E078004
900E1F0008
C00FF80008
C00E740008
C00E3C0404
C00F2D0808
902F8F4808
61FBE2F414
3400100020
1D00000090
0740000240
01B9006900
001AFE9000
ENDCHAR
STARTCHAR macron
ENCODING 175
SWIDTH 382 0
DWIDTH 8 0
BBX 6 1 1 16
BITMAP
AFD0
ENDCHAR
STARTCHAR degree
ENCODING 176
SWIDTH 346 0
DWIDTH 7 0
BBX 5 5 1 14
BITMAP
2E00
9180
C0C0
9180
6E00
ENDCHAR
STARTCHAR plusminus
ENCODING 177
SWIDTH 580 0
DWIDTH 12 0
BBX 10 8 1 3
BITMAP
005000
005000
009000
7FFA90
005000
005000
000000
FEAA00
ENDCHAR
STARTCHAR twosuperior
ENCODING 178
SWIDTH 365 0
DWIDTH 7 0
BBX 7 11 0 7
BITMAP
07E0
14B4
0078
0074
00B0
0280
1900
7804
0BA0
02D0
0040
ENDCHAR
STARTCHAR threesuperior
ENCODING 179
SWIDTH 371 0
DWIDTH 7 0
BBX 7 10 0 7
BITMAP
3FC0
1240
0200
07D0
00B4
003C
403C
403C
60B4
1F90
ENDCHAR
STARTCHAR acute
ENCODING 180
SWIDTH 234 0
DWIDTH 5 0
BBX 3 4 1 15
BITMAP
18
34
A0
80
ENDCHAR
STARTCHAR mu
ENCODING 181
SWIDTH 634 0
DWIDTH 13 0
BBX 13 17 0 -6
BITMAP
38004000
7803C000
3803D000
3802D000
3801D000
3C01D200
3D02E140
3F46E080
3CB87580
3C002E00
3C000000
3C000000
3D000000
2D000000
2D000000
2E000000
2E000000
ENDCHAR
STARTCHAR paragraph
ENCODING 182
SWIDTH 707 0
DWIDTH 14 0
BBX 14 24 0 -7
BITMAP
00000050
00001B40
02AFFD00
2FF82C00
7FF42C00
FFF42800
FFF42800
FFF42800
7FF42800
1FF02800
01F02800
00B43800
00B43800
00743800
00743800
00743C00
00743C00
00783C00
00783D00
00783F40
00783FF0
00B80000
06F80000
29000000
ENDCHAR
STARTCHAR periodcentered
ENCODING 183
SWIDTH 238 0
DWIDTH 5 0
BBX 3 3 1 6
BITMAP
B4
F8
B4
ENDCHAR
STARTCHAR cedilla
ENCODING 184
SWIDTH 332 0
DWIDTH 7 0
BBX 5 7 1 -5
BITMAP
0400
0400
1D00
0B40
0380
8740
7E00
ENDCHAR
STARTCHAR onesuperior
ENCODING 185
SWIDTH 336 0
DWIDTH 7 0
BBX 7 9 0 9
BITMAP
0080
01C0
0B80
0280
0280
0280
03C0
6FD0
05B4
ENDCHAR
STARTCHAR ordmasculine
ENCODING 186
SWIDTH 503 0
DWIDTH 10 0
BBX 10 9 0 6
BITMAP
06F900
181F40
2003C0
6001D0
7000D0
7400D0
3800C0
1E4280
06F900
ENDCHAR
STARTCHAR guillemotright
ENCODING 187
SWIDTH 778 0
DWIDTH 16 0
BBX 14 18 1 -5
BITMAP
00100000
00140000
400C0000
90070000
7402D000
2E00B400
0BE42E40
01FF4BD0
007E2F80
00B47D00
02D1F000
0743C000
0D074000
180E0000
201C0000
20180000
00240000
00100000
ENDCHAR
STARTCHAR onequarter
ENCODING 188
SWIDTH 876 0
DWIDTH 18 0
BBX 17 19 0 0
BITMAP
0000000400
0080001400
01C0002000
0B80009000
0280024000
0280060000
02800C0000
03C0244000
6FD060D000
05B581D000
000242D000
000904E000
001804E100
002020B700
00907BFF00
018010B400
020000BD00
080002FFC0
1400014000
ENDCHAR
STARTCHAR onehalf
ENCODING 189
SWIDTH 762 0
DWIDTH 15 0
BBX 15 20 0 -1
BITMAP
00000004
00800014
01C00020
0B800090
02800240
02800600
02800C00
03C02400
6FD06000
05B58BD0
000254F4
000900B4
001800B4
002000E0
00900280
01801900
02007804
08001FA0
140003C0
00000140
ENDCHAR
STARTCHAR threequarters
ENCODING 190
SWIDTH 922 0
DWIDTH 18 0
BBX 18 19 0 0
BITMAP
0000000100
0000000600
3FC0000800
1240002400
0200006000
07D0008000
00B4024000
003C091000
403C183400
403C307400
60B490B400
1F91813400
0006013840
0008082980
00241EFFC0
0060042D00
0080002F40
024000BFF0
0500004000
ENDCHAR
STARTCHAR questiondown
ENCODING 191
SWIDTH 571 0
DWIDTH 11 0
BBX 11 18 0 -2
BITMAP
002D00
007E00
003D00
000000
002400
000800
000800
002400
00A000
07C000
1F87E0
3F0BF8
7E07FC
7E00BC
7E0038
7F4034
1FD0A0
06FE40
ENDCHAR
STARTCHAR Agrave
ENCODING 192
SWIDTH 784 0
DWIDTH 16 0
BBX 16 23 0 -2
BITMAP
02800000
01D00000
00B00000
00180000
00000000
00168000
02FFC000
000FD000
000EE000
0015F000
0020F400
0020B800
00607C00
00B97D00
00C6FF00
02803F40
03001F80
0A000FC0
FE000BD0
06C007E0
000003F8
000007FF
00002900
ENDCHAR
STARTCHAR Aacute
ENCODING 193
SWIDTH 784 0
DWIDTH 16 0
BBX 16 23 0 -2
BITMAP
0000C000
00028000
00070000
00090000
00000000
00168000
02FFC000
000FD000
000EE000
0015F000
0020F400
0020B800
00607C00
00B97D00
00C6FF00
02803F40
03001F80
0A000FC0
FE000BD0
06C007E0
000003F8
000007FF
00002900
ENDCHAR
STARTCHAR Acircumflex
ENCODING 194
SWIDTH 784 0
DWIDTH 16 0
BBX 16 23 0 -2
BITMAP
00020000
000BD000
0024B400
00401D00
00000000
00168000
02FFC000
000FD000
000EE000
0015F000
0020F400
0020B800
00607C00
00B97D00
00C6FF00
02803F40
03001F80
0A000FC0
FE000BD0
06C007E0
000003F8
000007FF
00002900
ENDCHAR
STARTCHAR Atilde
ENCODING 195
SWIDTH 784 0
DWIDTH 16 0
BBX 16 23 0 -2
BITMAP
00790000
005FF400
0002E000
00000000
00000000
00168000
02FFC000
000FD000
000EE000
0015F000
0020F400
0020B800
00607C00
00B97D00
00C6FF00
02803F40
03001F80
0A000FC0
FE000BD0
06C007E0
000003F8
000007FF
00002900
ENDCHAR
STARTCHAR Adieresis
ENCODING 196
SWIDTH 784 0
DWIDTH 16 0
BBX 16 22 0 -2
BITMAP
00380000
007CB400
0078B400
00000000
00168000
02FFC000
000FD000
000EE000
0015F000
0020F400
0020B800
00607C00
00B97D00
00C6FF00
02803F40
03001F80
0A000FC0
FE000BD0
06C007E0
000003F8
000007FF
00002900
ENDCHAR
STARTCHAR Aring
ENCODING 197
SWIDTH 784 0
DWIDTH 16 0
BBX 16 24 0 -2
BITMAP
000B8000
00286000
00202000
00246000
000B8000
00000000
00168000
02FFC000
000FD000
000EE000
0015F000
0020F400
0020B800
00607C00
00B97D00
00C6FF00
02803F40
03001F80
0A000FC0
FE000BD0
06C007E0
000003F8
000007FF
00002900
ENDCHAR
STARTCHAR AE
ENCODING 198
SWIDTH 1172 0
DWIDTH 23 0
BBX 24 21 0 -3
BITMAP
000000000100
000000006E00
0000016BEE00
0001FFF80600
00000AF00100
000005F40000
000008B40400
000004B80800
000010B86800
000010BFF800
000050BD0800
000080BC0804
0001FFFD0008
0002407D000C
0006007E001C
0008003E003D
0018003F02FD
0030003FE940
00A0007E4000
07E000A40000
FEBD06400000
ENDCHAR
STARTCHAR Ccedilla
ENCODING 199
SWIDTH 742 0
DWIDTH 15 0
BBX 15 25 0 -8
BITMAP
00000040
00000040
00000080
006FFAD0
06E41BD0
1F8001D0
2F000060
7D000020
BD000000
BC000000
FC000000
FC000004
BD000008
BE000004
7F000014
2F400020
0FD00090
02F90640
006FF800
00004000
00019000
0001B400
00003800
00087400
0007E000
ENDCHAR
STARTCHAR Egrave
ENCODING 200
SWIDTH 557 0
DWIDTH 11 0
BBX 11 24 0 -3
BITMAP
1D0000
0B0000
028000
008000
000000
555AB0
2F9030
1F8020
0F8010
0F8000
0B8000
0B8000
078100
07FD00
078500
03C100
03C100
03C000
03C000
02C004
02D008
03D01C
7FFEF8
000564
ENDCHAR
STARTCHAR Eacute
ENCODING 201
SWIDTH 557 0
DWIDTH 11 0
BBX 11 24 0 -3
BITMAP
000600
000D00
001800
002000
000000
555AB0
2F9030
1F8020
0F8010
0F8000
0B8000
0B8000
078100
07FD00
078500
03C100
03C100
03C000
03C000
02C004
02D008
03D01C
7FFEF8
000564
ENDCHAR
STARTCHAR Ecircumflex
ENCODING 202
SWIDTH 557 0
DWIDTH 11 0
BBX 11 24 0 -3
BITMAP
002400
00BD00
024B40
0501D0
000000
555AB0
2F9030
1F8020
0F8010
0F8000
0B8000
0B8000
078100
07FD00
078500
03C100
03C100
03C000
03C000
02C004
02D008
03D01C
7FFEF8
000564
ENDCHAR
STARTCHAR Edieresis
ENCODING 203
SWIDTH 557 0
DWIDTH 11 0
BBX 11 23 0 -3
BITMAP
078000
07CB40
078B40
000000
555AB0
2F9030
1F8020
0F8010
0F8000
0B8000
0B8000
078100
07FD00
078500
03C100
03C100
03C000
03C000
02C004
02D008
03D01C
7FFEF8
000564
ENDCHAR
STARTCHAR Igrave
ENCODING 204
SWIDTH 438 0
DWIDTH 9 0
BBX 11 26 -1 -4
BITMAP
034000
02C000
00A000
002400
000000
6AAAF8
07FE00
01FC00
01F800
01F400
01F400
00F000
00F000
00F000
00E000
00E000
00E000
00E000
00D000
01D000
01D000
01D000
01E000
07FF00
690000
400000
ENDCHAR
STARTCHAR Iacute
ENCODING 205
SWIDTH 438 0
DWIDTH 9 0
BBX 11 26 -1 -4
BITMAP
000180
000740
000A00
000800
000000
6AAAF8
07FE00
01FC00
01F800
01F400
01F400
00F000
00F000
00F000
00E000
00E000
00E000
00E000
00D000
01D000
01D000
01D000
01E000
07FF00
690000
400000
ENDCHAR
STARTCHAR Icircumflex
ENCODING 206
SWIDTH 438 0
DWIDTH 9 0
BBX 11 26 -1 -4
BITMAP
002400
007D00
018780
0501A0
000000
6AAAF8
07FE00
01FC00
01F800
01F400
01F400
00F000
00F000
00F000
00E000
00E000
00E000
00E000
00D000
01D000
01D000
01D000
01E000
07FF00
690000
400000
ENDCHAR
STARTCHAR Idieresis
ENCODING 207
SWIDTH 438 0
DWIDTH 9 0
BBX 11 25 -1 -4
BITMAP
02C000
07D740
03C740
000000
6AAAF8
07FE00
01FC00
01F800
01F400
01F400
00F000
00F000
00F000
00E000
00E000
00E000
00E000
00D000
01D000
01D000
01D000
01E000
07FF00
690000
400000
ENDCHAR
STARTCHAR Eth
ENCODING 208
SWIDTH 730 0
DWIDTH 15 0
BBX 15 16 0 -4
BITMAP
2AAFE900
1BD07F80
03D00FE0
02D007F0
02D003F8
02D002F8
02D402F8
6FF802F8
53D003F8
03D003F0
03D00BD0
03E01F80
03E0B900
07FE9000
1E400000
50000000
ENDCHAR
STARTCHAR Ntilde
ENCODING 209
SWIDTH 799 0
DWIDTH 16 0
BBX 16 23 0 -4
BITMAP
0002E400
00047FC0
00041F40
00000000
00000005
FFD00FFE
0BF401E0
07FD0090
027F4050
022FD050
020BF450
0203FD90
0200FFC0
02007FC0
02001FC0
02000BC0
020002C0
02000080
02000000
07000000
0B400000
BFE00000
00600000
ENDCHAR
STARTCHAR Ograve
ENCODING 210
SWIDTH 747 0
DWIDTH 15 0
BBX 15 21 0 0
BITMAP
01C00000
00E00000
00740000
00080000
00000000
00000000
00AFE400
07907E00
1E000FC0
3D0007E0
7C0002F4
B80001F8
F80001F8
F80000F8
B80000F8
BC0000F8
7D0001F4
3E0002E0
1F4003C0
07E41F40
006FE400
ENDCHAR
STARTCHAR Oacute
ENCODING 211
SWIDTH 747 0
DWIDTH 15 0
BBX 15 21 0 0
BITMAP
0000C000
00028000
00070000
00090000
00000000
00000000
00AFE400
07907E00
1E000FC0
3D0007E0
7C0002F4
B80001F8
F80001F8
F80000F8
B80000F8
BC0000F8
7D0001F4
3E0002E0
1F4003C0
07E41F40
006FE400
ENDCHAR
STARTCHAR Ocircumflex
ENCODING 212
SWIDTH 747 0
DWIDTH 15 0
BBX 15 21 0 0
BITMAP
00090000
001F4000
0061E000
01406800
00000000
00000000
00AFE400
07907E00
1E000FC0
3D0007E0
7C0002F4
B80001F8
F80001F8
F80000F8
B80000F8
BC0000F8
7D0001F4
3E0002E0
1F4003C0
07E41F40
006FE400
ENDCHAR
STARTCHAR Otilde
ENCODING 213
SWIDTH 747 0
DWIDTH 15 0
BBX 15 20 0 0
BITMAP
003E4000
004BF800
0041F400
00000000
00000000
00AFE400
07907E00
1E000FC0
3D0007E0
7C0002F4
B80001F8
F80001F8
F80000F8
B80000F8
BC0000F8
7D0001F4
3E0002E0
1F4003C0
07E41F40
006FE400
ENDCHAR
STARTCHAR Odieresis
ENCODING 214
SWIDTH 747 0
DWIDTH 15 0
BBX 15 20 0 0
BITMAP
00780000
00BCB000
0078B000
00000000
00000000
00AFE400
07907E00
1E000FC0
3D0007E0
7C0002F4
B80001F8
F80001F8
F80000F8
B80000F8
BC0000F8
7D0001F4
3E0002E0
1F4003C0
07E41F40
006FE400
ENDCHAR
STARTCHAR multiply
ENCODING 215
SWIDTH 541 0
DWIDTH 11 0
BBX 9 12 1 0
BITMAP
000040
000240
000900
241800
096000
02C000
02A000
050900
180100
300000
900000
800000
ENDCHAR
STARTCHAR Oslash
ENCODING 216
SWIDTH 747 0
DWIDTH 15 0
BBX 15 19 0 -2
BITMAP
00000020
00000060
00AFE480
07907F40
1E000FC0
3D000FE0
7C0026F4
B800A1F8
F80181F8
F80200F8
B80900F8
BC2400F8
7D6001F4
3E8002E0
1F4003C0
07E41F40
086FE400
24000000
10000000
ENDCHAR
STARTCHAR Ugrave
ENCODING 217
SWIDTH 690 0
DWIDTH 14 0
BBX 15 21 0 1
BITMAP
00280000
001E0000
00074000
00018000
00000000
00000000
00064000
15BD0000
FFF40000
1FE0FAE8
0BD01B80
0BD00340
07D00240
07D00240
07D00240
07D00200
03E00200
03E00200
01F40500
00BD1800
001BE000
ENDCHAR
STARTCHAR Uacute
ENCODING 218
SWIDTH 690 0
DWIDTH 14 0
BBX 15 18 0 1
BITMAP
00000180
00000340
00000600
00064800
15BD0000
FFF40000
1FE0FAE8
0BD01B80
0BD00340
07D00240
07D00240
07D00240
07D00200
03E00200
03E00200
01F40500
00BD1800
001BE000
ENDCHAR
STARTCHAR Ucircumflex
ENCODING 219
SWIDTH 690 0
DWIDTH 14 0
BBX 15 19 0 1
BITMAP
00018000
0003E000
00092D00
00100B00
00064000
15BD0000
FFF40000
1FE0FAE8
0BD01B80
0BD00340
07D00240
07D00240
07D00240
07D00200
03E00200
03E00200
01F40500
00BD1800
001BE000
ENDCHAR
STARTCHAR Udieresis
ENCODING 220
SWIDTH 690 0
DWIDTH 14 0
BBX 15 19 0 1
BITMAP
001E0000
002F2C00
001E2C00
00000000
00064000
15BD0000
FFF40000
1FE0FAE8
0BD01B80
0BD00340
07D00240
07D00240
07D00240
07D00200
03E00200
03E00200
01F40500
00BD1800
001BE000
ENDCHAR
STARTCHAR Yacute
ENCODING 221
SWIDTH 796 0
DWIDTH 16 0
BBX 18 24 0 -3
BITMAP
0000018000
0000034000
0000060000
0000080000
016C000000
BFE0009400
1BD0006FE0
02F0002400
00BC005000
003E018000
001FC60000
0007FC0000
0002F40000
0001F00000
0000F00000
0000F00000
0000F00000
0000F00000
0000F40000
0001F40000
0001F40000
0006F80000
007FFD0000
00001A0000
ENDCHAR
STARTCHAR Thorn
ENCODING 222
SWIDTH 479 0
DWIDTH 10 0
BBX 10 21 0 -2
BITMAP
7FF000
1F8000
0B4000
0B4000
0BFE40
0B47D0
0B02E0
0B02F0
0B02F0
0B07D0
0BBE40
0B0000
0B0000
0B0000
0B0000
0F0000
0F0000
0F0000
1F4000
7FE000
001000
ENDCHAR
STARTCHAR germandbls
ENCODING 223
SWIDTH 591 0
DWIDTH 12 0
BBX 13 22 -1 -3
BITMAP
07E40000
0D2D0000
240E0000
240B0000
340B0000
340A0000
240D0000
28180000
2C100000
1DFE8000
1D07F800
0E00BD00
0F003F00
0B001F40
0B400B40
07800780
07C00740
03D74700
07EB8A00
0B96F400
24000000
40000000
ENDCHAR
STARTCHAR agrave
ENCODING 224
SWIDTH 527 0
DWIDTH 11 0
BBX 12 20 0 -2
BITMAP
740000
3C0000
0E0000
020000
000000
07E400
183C00
281E00
2E1F00
1F0F00
000F40
000F40
0BFF80
390B80
B40BC0
B81BC0
7FF7D4
2F93E5
0002FC
0000B4
ENDCHAR
STARTCHAR aacute
ENCODING 225
SWIDTH 527 0
DWIDTH 11 0
BBX 12 20 0 -2
BITMAP
000C00
002800
003000
005000
000000
07E400
183C00
281E00
2E1F00
1F0F00
000F40
000F40
0BFF80
390B80
B40BC0
B81BC0
7FF7D4
2F93E5
0002FC
0000B4
ENDCHAR
STARTCHAR acircumflex
ENCODING 226
SWIDTH 527 0
DWIDTH 11 0
BBX 12 19 0 -2
BITMAP
009000
02F400
061E00
140680
07E400
183C00
281E00
2E1F00
1F0F00
000F40
000F40
0BFF80
390B80
B40BC0
B81BC0
7FF7D4
2F93E5
0002FC
0000B4
ENDCHAR
STARTCHAR atilde
ENCODING 227
SWIDTH 527 0
DWIDTH 11 0
BBX 12 18 0 -2
BITMAP
07E000
04BF80
042F00
07E400
183C00
281E00
2E1F00
1F0F00
000F40
000F40
0BFF80
390B80
B40BC0
B81BC0
7FF7D4
2F93E5
0002FC
0000B4
ENDCHAR
STARTCHAR adieresis
ENCODING 228
SWIDTH 527 0
DWIDTH 11 0
BBX 12 18 0 -2
BITMAP
0B7400
0A7400
000000
07E400
183C00
281E00
2E1F00
1F0F00
000F40
000F40
0BFF80
390B80
B40BC0
B81BC0
7FF7D4
2F93E5
0002FC
0000B4
ENDCHAR
STARTCHAR aring
ENCODING 229
SWIDTH 527 0
DWIDTH 11 0
BBX 12 21 0 -2
BITMAP
01F400
060C00
050800
060800
02F400
000000
07E400
183C00
281E00
2E1F00
1F0F00
000F40
000F40
0BFF80
390B80
B40BC0
B81BC0
7FF7D4
2F93E5
0002FC
0000B4
ENDCHAR
STARTCHAR ae
ENCODING 230
SWIDTH 700 0
DWIDTH 14 0
BBX 14 13 0 -2
BITMAP
0000BE00
1F4247C0
30D902C0
746802C0
38780780
06F41F40
1D7FF800
34380010
703C0020
B03E0060
B4AF91D0
7FCBFF80
2E42FE00
ENDCHAR
STARTCHAR ccedilla
ENCODING 231
SWIDTH 437 0
DWIDTH 9 0
BBX 9 17 0 -5
BITMAP
02F800
093E00
243F00
701E00
B00000
B00200
B00140
B40140
780240
2E0600
07F800
008000
00E000
007C00
002C00
052C00
02E400
ENDCHAR
STARTCHAR egrave
ENCODING 232
SWIDTH 434 0
DWIDTH 9 0
BBX 9 16 0 1
BITMAP
280000
1E0000
074000
018000
000000
02F900
0E0B00
2C0740
780B40
B81E00
BFF800
B80000
7C0100
3D0140
1F4200
06F900
ENDCHAR
STARTCHAR eacute
ENCODING 233
SWIDTH 434 0
DWIDTH 9 0
BBX 9 16 0 1
BITMAP
000C00
002800
007000
005000
000000
02F900
0E0B00
2C0740
780B40
B81E00
BFF800
B80000
7C0100
3D0140
1F4200
06F900
ENDCHAR
STARTCHAR ecircumflex
ENCODING 234
SWIDTH 434 0
DWIDTH 9 0
BBX 9 17 0 1
BITMAP
009000
02F400
092D00
140640
000000
000000
02F900
0E0B00
2C0740
780B40
B81E00
BFF800
B80000
7C0100
3D0140
1F4200
06F900
ENDCHAR
STARTCHAR edieresis
ENCODING 235
SWIDTH 434 0
DWIDTH 9 0
BBX 9 14 0 1
BITMAP
076C00
076C00
000000
02F900
0E0B00
2C0740
780B40
B81E00
BFF800
B80000
7C0100
3D0140
1F4200
06F900
ENDCHAR
STARTCHAR igrave
ENCODING 236
SWIDTH 301 0
DWIDTH 6 0
BBX 7 16 -1 2
BITMAP
A000
7800
1D00
0600
0000
0190
2FD0
07D0
03D0
03C0
03C0
03C0
03C0
0380
07D0
2FF8
ENDCHAR
STARTCHAR iacute
ENCODING 237
SWIDTH 301 0
DWIDTH 6 0
BBX 6 16 0 2
BITMAP
0180
0280
0700
0800
0000
0640
BF40
1F40
0F40
0F00
0F00
0F00
0F00
0E00
1F40
BFE0
ENDCHAR
STARTCHAR icircumflex
ENCODING 238
SWIDTH 301 0
DWIDTH 6 0
BBX 8 16 -1 2
BITMAP
0240
07D0
1878
500A
0000
0190
2FD0
07D0
03D0
03C0
03C0
03C0
03C0
0380
07D0
2FF8
ENDCHAR
STARTCHAR idieresis
ENCODING 239
SWIDTH 301 0
DWIDTH 6 0
BBX 6 14 0 2
BITMAP
29D0
39D0
0000
0640
BF40
1F40
0F40
0F00
0F00
0F00
0F00
0E00
1F40
BFE0
ENDCHAR
STARTCHAR eth
ENCODING 240
SWIDTH 476 0
DWIDTH 10 0
BBX 12 18 -2 -2
BITMAP
000040
000100
06F900
290B40
5011D0
0010B0
000074
000038
00003C
006FBC
00E0BC
02D03C
03C02D
03C01C
03D01C
02E028
00B874
002F90
ENDCHAR
STARTCHAR ntilde
ENCODING 241
SWIDTH 584 0
DWIDTH 12 0
BBX 12 17 0 0
BITMAP
003E40
004BF8
0041F4
000000
060000
0E07D0
7F1FF4
4F21F8
0B4078
078078
078078
038078
038074
0280B4
02C7F4
1FF068
001005
ENDCHAR
STARTCHAR ograve
ENCODING 242
SWIDTH 400 0
DWIDTH 8 0
BBX 14 16 0 3
BITMAP
00000380
000007D0
740001D0
2C000090
0A000080
02400140
00000200
00000800
0001A000
0ABE4000
3C380000
B42D0000
B42E0000
B42E0000
787C0000
1BE00000
ENDCHAR
STARTCHAR oacute
ENCODING 243
SWIDTH 400 0
DWIDTH 8 0
BBX 14 16 0 3
BITMAP
00000380
000007D0
000001D0
000C0090
00280080
00700140
00900200
00000800
0001A000
0ABE4000
3C380000
B42D0000
B42E0000
B42E0000
787C0000
1BE00000
ENDCHAR
STARTCHAR ocircumflex
ENCODING 244
SWIDTH 400 0
DWIDTH 8 0
BBX 14 16 0 3
BITMAP
00000380
000007D0
008001D0
02E00090
092D0080
10074140
00000200
00000800
0001A000
0ABE4000
3C380000
B42D0000
B42E0000
B42E0000
787C0000
1BE00000
ENDCHAR
STARTCHAR otilde
ENCODING 245
SWIDTH 400 0
DWIDTH 8 0
BBX 14 16 0 3
BITMAP
00000380
000007D0
000001D0
00000090
07D00080
05FF4140
042E0200
00000800
0001A000
0ABE4000
3C380000
B42D0000
B42E0000
B42E0000
787C0000
1BE00000
ENDCHAR
STARTCHAR odieresis
ENCODING 246
SWIDTH 400 0
DWIDTH 8 0
BBX 14 16 0 3
BITMAP
00000380
000007D0
000001D0
00000090
00000080
07680140
0B780200
00000800
0001A000
0ABE4000
3C380000
B42D0000
B42E0000
B42E0000
787C0000
1BE00000
ENDCHAR
STARTCHAR divide
ENCODING 247
SWIDTH 592 0
DWIDTH 12 0
BBX 10 8 1 2
BITMAP
01D000
01D000
000000
000000
FFFFE0
000000
01D000
01D000
ENDCHAR
STARTCHAR oslash
ENCODING 248
SWIDTH 396 0
DWIDTH 8 0
BBX 8 12 0 0
BITMAP
0040
0080
0BE4
38BC
B16D
B21E
B62D
7D78
1FE0
0800
1800
1400
ENDCHAR
STARTCHAR ugrave
ENCODING 249
SWIDTH 744 0
DWIDTH 15 0
BBX 15 16 0 0
BITMAP
00A00000
00780000
001D0000
00060000
00000000
00001900
0242FE00
1B401E00
AF800E00
07800F00
03C00F00
03D01F00
02E02B40
01F467F8
00FFD140
006F4000
ENDCHAR
STARTCHAR uacute
ENCODING 250
SWIDTH 744 0
DWIDTH 15 0
BBX 15 16 0 0
BITMAP
00018000
00034000
00060000
00080000
00000000
00001900
0242FE00
1B401E00
AF800E00
07800F00
03C00F00
03D01F00
02E02B40
01F467F8
00FFD140
006F4000
ENDCHAR
STARTCHAR ucircumflex
ENCODING 251
SWIDTH 744 0
DWIDTH 15 0
BBX 15 16 0 0
BITMAP
00180000
003E0000
0092D000
0100B000
00000000
00001900
0242FE00
1B401E00
AF800E00
07800F00
03C00F00
03D01F00
02E02B40
01F467F8
00FFD140
006F4000
ENDCHAR
STARTCHAR udieresis
ENCODING 252
SWIDTH 744 0
DWIDTH 15 0
BBX 15 14 0 0
BITMAP
0029D000
0039D000
00000000
00001900
0242FE00
1B401E00
AF800E00
07800F00
03C00F00
03D01F00
02E02B40
01F467F8
00FFD140
006F4000
ENDCHAR
STARTCHAR yacute
ENCODING 253
SWIDTH 659 0
DWIDTH 13 0
BBX 13 23 0 -9
BITMAP
00006000
0000A000
0001C000
00020000
00600040
1BD2FF80
BF407F00
1F002F00
0F401E00
0F402E00
0B802E00
07C02E00
02E09D00
00BE1D00
00002C00
00002800
00002800
00003400
02E07000
05F49000
08B1C000
09074000
02F80000
ENDCHAR
STARTCHAR thorn
ENCODING 254
SWIDTH 514 0
DWIDTH 10 0
BBX 11 30 -1 -13
BITMAP
018000
2F4000
FE0000
1E0000
0E0000
0E0000
0E0000
0A0000
0B7E40
0B87D0
0B01F4
0B00F8
0B00F8
0740BC
0740F8
0780F8
07C2F4
07AF90
078000
078000
078000
078000
07C000
07C000
07C000
07C000
0BC000
0BD000
7FE400
005A00
ENDCHAR
STARTCHAR ydieresis
ENCODING 255
SWIDTH 659 0
DWIDTH 13 0
BBX 13 23 0 -9
BITMAP
001E7000
001DB000
00000000
00000000
00600040
1BD2FF80
BF407F00
1F002F00
0F401E00
0F402E00
0B802E00
07C02E00
02E09D00
00BE1D00
00002C00
00002800
00002800
00003400
02E07000
05F49000
08B1C000
09074000
02F80000
ENDCHAR
STARTCHAR dotlessi
ENCODING 305
SWIDTH 301 0
DWIDTH 6 0
BBX 6 11 0 2
BITMAP
0640
BF40
1F40
0F40
0F00
0F00
0F00
0F00
0E00
1F40
BFE0
ENDCHAR
STARTCHAR OE
ENCODING 338
SWIDTH 1132 0
DWIDTH 23 0
BBX 23 20 0 -3
BITMAP
000000000100
000000001B40
006FE5FFEB40
07D06E7D0140
1F0007BC0040
3D0002FC0000
7C0000FC0000
BC0000BC0000
BC00007D0100
FC00007D1900
BD00003FAD00
BD00003D0500
7F00007D0100
2F8000BE0000
0FD001BE0004
03F9063E0008
006FE43E0024
0000003F05B4
0000007FFFF8
000006A50000
ENDCHAR
STARTCHAR oe
ENCODING 339
SWIDTH 798 0
DWIDTH 16 0
BBX 16 10 0 1
BITMAP
0BE40BE0
286D2C74
740FB428
B407F034
B403F0B0
B803FF95
7D03F002
2F4AB802
06F82D08
000007E4
ENDCHAR
STARTCHAR circumflex
ENCODING 710
SWIDTH 483 0
DWIDTH 10 0
BBX 8 4 1 14
BITMAP
0240
0BD0
1878
501A
ENDCHAR
STARTCHAR caron
ENCODING 711
SWIDTH 428 0
DWIDTH 9 0
BBX 6 5 1 14
BITMAP
4020
6080
2E40
0E00
0500
ENDCHAR
STARTCHAR ring
ENCODING 730
SWIDTH 330 0
DWIDTH 7 0
BBX 5 5 1 17
BITMAP
2E00
9240
C180
9240
6E00
ENDCHAR
STARTCHAR tilde
ENCODING 732
SWIDTH 433 0
DWIDTH 9 0
BBX 7 3 1 15
BITMAP
7E00
4BF8
42F4
ENDCHAR
STARTCHAR mu.dup1
ENCODING 956
SWIDTH 634 0
DWIDTH 13 0
BBX 13 17 0 -6
BITMAP
38004000
7803C000
3803D000
3802D000
3801D000
3C01D200
3D02E140
3F46E080
3CB87580
3C002E00
3C000000
3C000000
3D000000
2D000000
2D000000
2E000000
2E000000
ENDCHAR
STARTCHAR endash
ENCODING 8211
SWIDTH 436 0
DWIDTH 9 0
BBX 7 2 1 4
BITMAP
4000
AFF4
ENDCHAR
STARTCHAR emdash
ENCODING 8212
SWIDTH 651 0
DWIDTH 13 0
BBX 11 2 1 4
BITMAP
15ABFC
655400
ENDCHAR
STARTCHAR quoteleft
ENCODING 8216
SWIDTH 287 0
DWIDTH 6 0
BBX 4 6 1 11
BITMAP
09
34
B4
FC
FD
78
ENDCHAR
STARTCHAR quoteright
ENCODING 8217
SWIDTH 291 0
DWIDTH 6 0
BBX 4 7 1 9
BITMAP
B8
FE
BE
2E
0A
08
24
ENDCHAR
STARTCHAR quotesinglbase
ENCODING 8218
SWIDTH 272 0
DWIDTH 5 0
BBX 4 7 1 -4
BITMAP
78
FD
BD
2D
0C
14
20
ENDCHAR
STARTCHAR quotedblleft
ENCODING 8220
SWIDTH 445 0
DWIDTH 9 0
BBX 7 7 1 9
BITMAP
0500
1814
7460
B4B0
FCF8
FD78
7800
ENDCHAR
STARTCHAR quotedblright
ENCODING 8221
SWIDTH 444 0
DWIDTH 9 0
BBX 7 8 1 9
BITMAP
B800
FCB4
BDFC
2CF8
1878
2430
2090
0240
ENDCHAR
STARTCHAR quotedblbase
ENCODING 8222
SWIDTH 482 0
DWIDTH 10 0
BBX 8 8 1 -6
BITMAP
7800
FE3D
BEBE
2E7E
0D2D
081C
1424
0050
ENDCHAR
STARTCHAR bullet
ENCODING 8226
SWIDTH 351 0
DWIDTH 7 0
BBX 5 5 1 6
BITMAP
2E40
BF80
FFC0
BF80
6E40
ENDCHAR
STARTCHAR guilsinglleft
ENCODING 8249
SWIDTH 465 0
DWIDTH 9 0
BBX 7 12 1 -1
BITMAP
0010
0020
0080
0280
0B00
2E00
BE00
2F40
07C0
01E0
0074
0018
ENDCHAR
STARTCHAR guilsinglright
ENCODING 8250
SWIDTH 449 0
DWIDTH 9 0
BBX 7 13 1 -2
BITMAP
5000
2000
2800
0E00
0790
03F8
03E0
0B80
1E00
3800
7000
9000
8000
ENDCHAR
STARTCHAR fraction
ENCODING 8260
SWIDTH 406 0
DWIDTH 8 0
BBX 14 19 -3 0
BITMAP
00000010
00000080
00000140
00000600
00000800
00002400
00006000
0000C000
00024000
000A0000
00180000
00300000
00900000
01800000
02000000
09000000
14000000
60000000
80000000
ENDCHAR
STARTCHAR foursuperior
ENCODING 8308
SWIDTH 473 0
DWIDTH 9 0
BBX 9 12 0 7
BITMAP
004000
00D000
01D000
02D000
04D000
04E100
20A600
7BFF00
10B400
00BD00
02FFC0
010000
ENDCHAR
STARTCHAR Euro
ENCODING 8364
SWIDTH 799 0
DWIDTH 16 0
BBX 17 17 0 -1
BITMAP
0000000080
0001BF8140
001F90BF00
007D001E00
00F8000D00
02F4000800
03F0100400
07E6900000
0BE4500000
6BEA400000
1BE4000000
EBE0001000
03E0002000
02F0001000
01F8004000
007E414000
000BF90000
ENDCHAR
STARTCHAR minus
ENCODING 8722
SWIDTH 436 0
DWIDTH 9 0
BBX 7 2 1 4
BITMAP
4000
AFF4
ENDCHAR
STARTCHAR f_f
ENCODING 64256
SWIDTH 467 0
DWIDTH 9 0
BBX 12 30 0 -7
BITMAP
007E00
016F00
021F40
050FF8
090A2E
08183E
0C24BE
0C3478
0C3400
0C3400
1C3440
1EBE80
2E7400
1D3800
0D3800
0D2C00
0E2C00
0E1D00
0F1E00
0F0E00
0B0F40
0B4B80
0B4BF4
0B8E40
079400
07C000
07D000
07E000
0BF400
7FFE00
ENDCHAR
STARTCHAR .notdef
ENCODING -1
SWIDTH 270 0
DWIDTH 5 0
BBX 5 12 0 0
BITMAP
7F80
0000
0000
0000
0000
0000
0000
0000
0000
0000
0000
7F80
ENDCHAR
STARTCHAR .null
ENCODING -1
SWIDTH 0 0
DWIDTH 0 0
BBX 1 1 0 0
BITMAP
00
ENDCHAR
STARTCHAR nonmarkingreturn
ENCODING -1
SWIDTH 270 0
DWIDTH 5 0
BBX 1 1 0 0
BITMAP
00
ENDCHAR
STARTCHAR dieresis.case
ENCODING -1
SWIDTH 393 0
DWIDTH 8 0
BBX 6 3 1 15
BITMAP
B400
F8E0
B5E0
ENDCHAR
STARTCHAR o.cmp
ENCODING -1
SWIDTH 400 0
DWIDTH 8 0
BBX 14 16 0 3
BITMAP
00000380
000007D0
000001D0
00000090
00000080
00000140
00000200
00000800
0001A000
0ABE4000
3C380000
B42D0000
B42E0000
B42E0000
787C0000
1BE00000
ENDCHAR
STARTCHAR n_n
ENCODING -1
SWIDTH 1024 0
DWIDTH 21 0
BBX 20 13 0 0
BITMAP
0600000000
1E0BD00000
AF2FF46400
0F61FAF400
0B80B8B5F8
078078B92D
078078B81E
038078B41E
038074B41E
028074B42E
02C0B5F93D
1FFBF542FE
0010190005
ENDCHAR
STARTCHAR a_a
ENCODING -1
SWIDTH 911 0
DWIDTH 18 0
BBX 19 14 0 -2
BITMAP
00000BE000
0000282C00
00003C0E00
1B902D0B00
34B0000B00
74342F9F00
7834F42F00
0035ED0F00
0BFADA0F40
7D39D20F40
B83CF65F40
B85E6F8F44
2F46F40788
00000002F4
ENDCHAR
STARTCHAR t_h
ENCODING -1
SWIDTH 854 0
DWIDTH 17 0
BBX 18 26 -1 -4
BITMAP
0000180000
0001B80000
002FF80000
0000B80000
0000780000
0000380000
0008740000
0028740000
01B8740000
6FFFFE0000
01F0740000
01E071BE00
01E0BA0B80
01E0B803D0
01E0B402D0
01E0B0E2E0
01E0B1F2E0
00F0F0B2E0
00B4F0A2D0
003EF1C3D0
000BFE03C0
0001F407C0
0007FF0B80
0029001F80
000000FFD0
00000001B0
ENDCHAR
STARTCHAR s_s
ENCODING -1
SWIDTH 654 0
DWIDTH 13 0
BBX 14 18 -1 -3
BITMAP
00004000
007E4050
00D26FD0
01D1B4C0
01D0E040
00B0B000
003CB400
001F7C00
0007AE00
0402DF40
0801E7C0
182DE3D0
2C79D2E0
5697C2E0
00BE02E0
002003D0
00181F80
0006F900
ENDCHAR
STARTCHAR t_t
ENCODING -1
SWIDTH 569 0
DWIDTH 11 0
BBX 12 18 0 -2
BITMAP
001E00
009E00
019D50
1BAF80
BFFD00
0F6C00
0F2C00
0F2C00
1E2C00
1E2C00
1E1D38
1E0E2D
0F0B49
0F02F8
0B4000
0380F0
01D2F0
006F90
ENDCHAR
STARTCHAR e_e
ENCODING -1
SWIDTH 782 0
DWIDTH 16 0
BBX 16 11 0 0
BITMAP
0BE06F80
2D25E0E0
742AC060
B4378060
F5A780A0
BE478090
B803C188
3D03D705
1F91F805
01BFBD18
00001BE0
ENDCHAR
STARTCHAR o_o
ENCODING -1
SWIDTH 751 0
DWIDTH 15 0
BBX 21 17 0 1
BITMAP
000000000E00
000000001F40
000000000740
000000000240
000000000200
000000000500
000000000800
000000002400
06F800069000
1E0776F90000
3C02D0E00000
B803C0B40000
B407C0780000
B403C0B80000
7807D1F00000
2D1FBF800000
0BF900000000
ENDCHAR
STARTCHAR l_l
ENCODING -1
SWIDTH 573 0
DWIDTH 11 0
BBX 13 20 -1 -3
BITMAP
0181B000
1B9FF000
6B82F000
0B81F000
0781F000
0781F000
0781F000
0781F000
0780F000
0780F000
0780F000
0780F400
0780F400
0780F400
0B80F800
0BC0FC00
0BC6FF40
FFD00000
16E00000
00140000
ENDCHAR
STARTCHAR z_z
ENCODING -1
SWIDTH 875 0
DWIDTH 18 0
BBX 19 15 -1 -1
BITMAP
0009018000
000FFF8000
0004074000
00000B0000
0BFFCE0000
042F5D0000
043E3C0000
007C780000
00F4F40400
02E1F02400
07C2FFF4B4
0F400000F8
2E000000B8
7EFFA500B0
00016AFE40
ENDCHAR
STARTCHAR j_j
ENCODING -1
SWIDTH 577 0
DWIDTH 12 0
BBX 14 28 -3 -13
BITMAP
00003C00
00007D00
000B7800
000B0600
0000BF40
00015F80
00BFCBC0
001FD7C0
0007E3D0
0003E2E0
0002E1E0
0001E0E0
0001F0F0
0000F0B0
0000F0B0
0000F0B0
0000B070
0000E070
0B80E070
2FC0D070
3E41C070
74018060
30034060
281E0090
0BE54080
0007D080
0007E100
0001F800
ENDCHAR
STARTCHAR f_b
ENCODING -1
SWIDTH 731 0
DWIDTH 15 0
BBX 16 26 -1 -3
BITMAP
000BD000
00347000
00503400
00C1B400
01C7F400
0187E000
02816800
0286F800
03D6F800
6FD47800
57C03800
03C03800
03C03800
03C03800
03C03800
03C03800
03C03AF4
03C03C7D
03C0382E
03D0342E
03D0787D
03D0FFF4
03D14000
03E00000
07FE0000
19000000
ENDCHAR
STARTCHAR f_k
ENCODING -1
SWIDTH 708 0
DWIDTH 14 0
BBX 14 23 0 -3
BITMAP
00140000
00B40000
1BFF9000
00F4F000
01B5F400
0376F400
063AE000
0A380000
0E380000
2D385000
0D382E40
0D382400
0D388000
0D3EC040
0D3DD010
0D3CF020
1D3CB820
1D3D3FE0
1D3D0B80
1E3D0000
7E3E5000
06FFF400
01000000
ENDCHAR
STARTCHAR f_h
ENCODING -1
SWIDTH 873 0
DWIDTH 17 0
BBX 19 26 -1 -3
BITMAP
000B900000
0024700000
0050340000
0081B40000
00C7F00000
0187DA0000
02806D0000
0283FD0000
03D62D0000
07F91C0000
BFC01C0000
03C01C0000
03C02C0000
03C02C0000
03C02C0000
03C02CBE00
03C02E4B40
03C03D0780
03C03C07C0
03D03C07C0
03D03807C0
03D07807C0
03D0B80FF4
03E7FD1400
07FE050000
1900000000
ENDCHAR
ENDFONT
